<mxfile host="app.diagrams.net" modified="2021-08-24T08:04:22.636Z" agent="5.0 (Windows NT 10.0; Win64; x64) AppleWebKit/537.36 (KHTML, like Gecko) Chrome/92.0.4515.159 Safari/537.36" etag="NX2rHL0NtQOky4X79I0f" version="14.9.8" type="github">
  <diagram id="C5RBs43oDa-KdzZeNtuy" name="Page-1">
    <mxGraphModel dx="2218" dy="722" grid="0" gridSize="10" guides="1" tooltips="1" connect="1" arrows="1" fold="1" page="1" pageScale="1" pageWidth="827" pageHeight="1169" math="0" shadow="0">
      <root>
        <mxCell id="WIyWlLk6GJQsqaUBKTNV-0" />
        <mxCell id="WIyWlLk6GJQsqaUBKTNV-1" parent="WIyWlLk6GJQsqaUBKTNV-0" />
        <mxCell id="v3mbU31P-Tuf0xxwVjLB-0" value="Index.html" style="swimlane;fontStyle=2;align=center;verticalAlign=top;childLayout=stackLayout;horizontal=1;startSize=26;horizontalStack=0;resizeParent=1;resizeLast=0;collapsible=1;marginBottom=0;rounded=0;shadow=0;strokeWidth=1;" vertex="1" parent="WIyWlLk6GJQsqaUBKTNV-1">
          <mxGeometry x="-813" y="16" width="105" height="189" as="geometry">
            <mxRectangle x="220" y="120" width="160" height="26" as="alternateBounds" />
          </mxGeometry>
        </mxCell>
        <mxCell id="v3mbU31P-Tuf0xxwVjLB-1" value="apps.js" style="swimlane;fontStyle=0;align=center;verticalAlign=top;childLayout=stackLayout;horizontal=1;startSize=29;horizontalStack=0;resizeParent=1;resizeLast=0;collapsible=1;marginBottom=0;rounded=0;shadow=0;strokeWidth=1;" vertex="1" parent="WIyWlLk6GJQsqaUBKTNV-1">
          <mxGeometry x="-639" y="16" width="192" height="417" as="geometry">
            <mxRectangle x="-639" y="16" width="160" height="26" as="alternateBounds" />
          </mxGeometry>
        </mxCell>
        <mxCell id="v3mbU31P-Tuf0xxwVjLB-2" value="Clock " style="swimlane;fontStyle=0;childLayout=stackLayout;horizontal=1;startSize=26;horizontalStack=0;resizeParent=1;resizeParentMax=0;resizeLast=0;collapsible=1;marginBottom=0;" vertex="1" parent="v3mbU31P-Tuf0xxwVjLB-1">
          <mxGeometry y="29" width="192" height="190" as="geometry">
            <mxRectangle y="29" width="192" height="26" as="alternateBounds" />
          </mxGeometry>
        </mxCell>
        <mxCell id="v3mbU31P-Tuf0xxwVjLB-3" value="const Clock = CanolaUI.create({&#xa;  template: function () {&#xa;    return `&#xa;      &lt;div id =&quot;root&quot; class=&quot;clock&quot;&gt;&#xa;        &lt;h3&gt;${this.title}&lt;/h3&gt;&#xa;        &lt;p&gt;${this.time}&lt;/p&gt;&#xa;      &lt;/div&gt;&#xa;    `;&#xa;  },&#xa;});" style="text;strokeColor=none;fillColor=none;align=left;verticalAlign=top;spacingLeft=4;spacingRight=4;overflow=hidden;rotatable=0;points=[[0,0.5],[1,0.5]];portConstraint=eastwest;" vertex="1" parent="v3mbU31P-Tuf0xxwVjLB-2">
          <mxGeometry y="26" width="192" height="164" as="geometry" />
        </mxCell>
        <mxCell id="v3mbU31P-Tuf0xxwVjLB-4" value="MyClock" style="swimlane;fontStyle=0;childLayout=stackLayout;horizontal=1;startSize=26;horizontalStack=0;resizeParent=1;resizeParentMax=0;resizeLast=0;collapsible=1;marginBottom=0;" vertex="1" parent="v3mbU31P-Tuf0xxwVjLB-1">
          <mxGeometry y="219" width="192" height="128" as="geometry">
            <mxRectangle y="55" width="192" height="26" as="alternateBounds" />
          </mxGeometry>
        </mxCell>
        <mxCell id="v3mbU31P-Tuf0xxwVjLB-5" value="const myClock = new Clock({&#xa;  root: &quot;#root&quot;,&#xa;  title: &quot;최초 실행 시간&quot;,&#xa;  backgroundColor: &quot;#E0F7FA&quot;,&#xa;  time: initialTime,&#xa;});" style="text;strokeColor=none;fillColor=none;align=left;verticalAlign=top;spacingLeft=4;spacingRight=4;overflow=hidden;rotatable=0;points=[[0,0.5],[1,0.5]];portConstraint=eastwest;" vertex="1" parent="v3mbU31P-Tuf0xxwVjLB-4">
          <mxGeometry y="26" width="192" height="102" as="geometry" />
        </mxCell>
        <mxCell id="v3mbU31P-Tuf0xxwVjLB-6" value="myClock.render();" style="text;html=1;align=center;verticalAlign=middle;resizable=0;points=[];autosize=1;strokeColor=none;" vertex="1" parent="v3mbU31P-Tuf0xxwVjLB-1">
          <mxGeometry y="347" width="192" height="18" as="geometry" />
        </mxCell>
        <mxCell id="v3mbU31P-Tuf0xxwVjLB-7" value="times.js" style="swimlane;fontStyle=0;align=center;verticalAlign=top;childLayout=stackLayout;horizontal=1;startSize=26;horizontalStack=0;resizeParent=1;resizeLast=0;collapsible=1;marginBottom=0;rounded=0;shadow=0;strokeWidth=1;" vertex="1" parent="WIyWlLk6GJQsqaUBKTNV-1">
          <mxGeometry x="545" y="50" width="160" height="70" as="geometry">
            <mxRectangle x="340" y="380" width="170" height="26" as="alternateBounds" />
          </mxGeometry>
        </mxCell>
        <mxCell id="v3mbU31P-Tuf0xxwVjLB-8" value="Salary" style="text;align=left;verticalAlign=top;spacingLeft=4;spacingRight=4;overflow=hidden;rotatable=0;points=[[0,0.5],[1,0.5]];portConstraint=eastwest;" vertex="1" parent="v3mbU31P-Tuf0xxwVjLB-7">
          <mxGeometry y="26" width="160" height="26" as="geometry" />
        </mxCell>
        <mxCell id="v3mbU31P-Tuf0xxwVjLB-9" value="" style="line;html=1;strokeWidth=1;align=left;verticalAlign=middle;spacingTop=-1;spacingLeft=3;spacingRight=3;rotatable=0;labelPosition=right;points=[];portConstraint=eastwest;" vertex="1" parent="v3mbU31P-Tuf0xxwVjLB-7">
          <mxGeometry y="52" width="160" height="8" as="geometry" />
        </mxCell>
        <mxCell id="v3mbU31P-Tuf0xxwVjLB-10" value="utils.js" style="swimlane;fontStyle=0;align=center;verticalAlign=top;childLayout=stackLayout;horizontal=1;startSize=26;horizontalStack=0;resizeParent=1;resizeLast=0;collapsible=1;marginBottom=0;rounded=0;shadow=0;strokeWidth=1;" vertex="1" parent="WIyWlLk6GJQsqaUBKTNV-1">
          <mxGeometry x="741" y="67" width="160" height="70" as="geometry">
            <mxRectangle x="340" y="380" width="170" height="26" as="alternateBounds" />
          </mxGeometry>
        </mxCell>
        <mxCell id="v3mbU31P-Tuf0xxwVjLB-11" value="Salary" style="text;align=left;verticalAlign=top;spacingLeft=4;spacingRight=4;overflow=hidden;rotatable=0;points=[[0,0.5],[1,0.5]];portConstraint=eastwest;" vertex="1" parent="v3mbU31P-Tuf0xxwVjLB-10">
          <mxGeometry y="26" width="160" height="26" as="geometry" />
        </mxCell>
        <mxCell id="v3mbU31P-Tuf0xxwVjLB-12" value="" style="line;html=1;strokeWidth=1;align=left;verticalAlign=middle;spacingTop=-1;spacingLeft=3;spacingRight=3;rotatable=0;labelPosition=right;points=[];portConstraint=eastwest;" vertex="1" parent="v3mbU31P-Tuf0xxwVjLB-10">
          <mxGeometry y="52" width="160" height="8" as="geometry" />
        </mxCell>
        <mxCell id="v3mbU31P-Tuf0xxwVjLB-13" value="" style="endArrow=classic;html=1;exitX=0;exitY=0.5;exitDx=0;exitDy=0;" edge="1" parent="WIyWlLk6GJQsqaUBKTNV-1" source="v3mbU31P-Tuf0xxwVjLB-1" target="v3mbU31P-Tuf0xxwVjLB-15">
          <mxGeometry width="50" height="50" relative="1" as="geometry">
            <mxPoint x="-57" y="524" as="sourcePoint" />
            <mxPoint x="-86" y="472" as="targetPoint" />
          </mxGeometry>
        </mxCell>
        <mxCell id="v3mbU31P-Tuf0xxwVjLB-14" value="" style="shape=table;startSize=0;container=1;collapsible=0;childLayout=tableLayout;" vertex="1" parent="WIyWlLk6GJQsqaUBKTNV-1">
          <mxGeometry x="-809" y="50" width="82" height="130" as="geometry" />
        </mxCell>
        <mxCell id="v3mbU31P-Tuf0xxwVjLB-15" value="" style="shape=partialRectangle;collapsible=0;dropTarget=0;pointerEvents=0;fillColor=none;top=0;left=0;bottom=0;right=0;points=[[0,0.5],[1,0.5]];portConstraint=eastwest;" vertex="1" parent="v3mbU31P-Tuf0xxwVjLB-14">
          <mxGeometry width="82" height="130" as="geometry" />
        </mxCell>
        <mxCell id="v3mbU31P-Tuf0xxwVjLB-16" value="&lt;span style=&quot;font-size: 6px&quot;&gt;Body&lt;br&gt;&lt;/span&gt;-&amp;nbsp; main div&lt;br&gt;&amp;nbsp; - Canola UI&lt;br&gt;&amp;nbsp; - section&amp;nbsp;" style="shape=partialRectangle;html=1;whiteSpace=wrap;connectable=0;overflow=hidden;fillColor=none;top=0;left=0;bottom=0;right=0;pointerEvents=1;align=left;" vertex="1" parent="v3mbU31P-Tuf0xxwVjLB-15">
          <mxGeometry width="82" height="130" as="geometry" />
        </mxCell>
        <mxCell id="v3mbU31P-Tuf0xxwVjLB-17" value="index.js" style="swimlane;fontStyle=0;align=center;verticalAlign=top;childLayout=stackLayout;horizontal=1;startSize=29;horizontalStack=0;resizeParent=1;resizeLast=0;collapsible=1;marginBottom=0;rounded=0;shadow=0;strokeWidth=1;" vertex="1" parent="WIyWlLk6GJQsqaUBKTNV-1">
          <mxGeometry x="-410" y="15" width="220" height="407" as="geometry">
            <mxRectangle x="-410" y="15" width="192" height="26" as="alternateBounds" />
          </mxGeometry>
        </mxCell>
        <mxCell id="v3mbU31P-Tuf0xxwVjLB-18" value="CanolaUI" style="swimlane;fontStyle=0;childLayout=stackLayout;horizontal=1;startSize=26;horizontalStack=0;resizeParent=1;resizeParentMax=0;resizeLast=0;collapsible=1;marginBottom=0;" vertex="1" parent="v3mbU31P-Tuf0xxwVjLB-17">
          <mxGeometry y="29" width="220" height="190" as="geometry">
            <mxRectangle y="29" width="431" height="26" as="alternateBounds" />
          </mxGeometry>
        </mxCell>
        <mxCell id="v3mbU31P-Tuf0xxwVjLB-19" value="const CanolaUI = {&#xa;  create(options) {&#xa;    validateOptions(options);&#xa;    return componentFactory(options.template);&#xa;  },&#xa;};" style="text;strokeColor=none;fillColor=none;align=left;verticalAlign=top;spacingLeft=4;spacingRight=4;overflow=hidden;rotatable=0;points=[[0,0.5],[1,0.5]];portConstraint=eastwest;" vertex="1" parent="v3mbU31P-Tuf0xxwVjLB-18">
          <mxGeometry y="26" width="220" height="164" as="geometry" />
        </mxCell>
        <mxCell id="v3mbU31P-Tuf0xxwVjLB-20" style="edgeStyle=orthogonalEdgeStyle;rounded=0;orthogonalLoop=1;jettySize=auto;html=1;exitX=1;exitY=0.5;exitDx=0;exitDy=0;" edge="1" parent="v3mbU31P-Tuf0xxwVjLB-18" source="v3mbU31P-Tuf0xxwVjLB-19" target="v3mbU31P-Tuf0xxwVjLB-19">
          <mxGeometry relative="1" as="geometry" />
        </mxCell>
        <mxCell id="v3mbU31P-Tuf0xxwVjLB-21" value="validateOptions" style="swimlane;fontStyle=0;childLayout=stackLayout;horizontal=1;startSize=26;horizontalStack=0;resizeParent=1;resizeParentMax=0;resizeLast=0;collapsible=1;marginBottom=0;" vertex="1" parent="v3mbU31P-Tuf0xxwVjLB-17">
          <mxGeometry y="219" width="220" height="187" as="geometry">
            <mxRectangle y="219" width="431" height="26" as="alternateBounds" />
          </mxGeometry>
        </mxCell>
        <mxCell id="v3mbU31P-Tuf0xxwVjLB-22" value="function validateOptions({ template }) {&#xa;  if (!template) {&#xa;    throw new CanolaError(&quot;&#39;template&#39;은 필수 옵션입니다.&quot;);&#xa;  }&#xa;  if (typeof template !== &quot;function&quot;) {&#xa;    throw new CanolaError(&#xa;      &quot;&#39;template&#39; 옵션은 해당 컴포넌트의 HTML 마크업을 문자열로 반환하는 함수여야 합니다.&quot;&#xa;    );&#xa;  }&#xa;}" style="text;strokeColor=none;fillColor=none;align=left;verticalAlign=top;spacingLeft=4;spacingRight=4;overflow=hidden;rotatable=0;points=[[0,0.5],[1,0.5]];portConstraint=eastwest;" vertex="1" parent="v3mbU31P-Tuf0xxwVjLB-21">
          <mxGeometry y="26" width="220" height="161" as="geometry" />
        </mxCell>
        <mxCell id="v3mbU31P-Tuf0xxwVjLB-23" style="edgeStyle=orthogonalEdgeStyle;rounded=0;orthogonalLoop=1;jettySize=auto;html=1;exitX=1;exitY=0.5;exitDx=0;exitDy=0;" edge="1" parent="v3mbU31P-Tuf0xxwVjLB-21" source="v3mbU31P-Tuf0xxwVjLB-22" target="v3mbU31P-Tuf0xxwVjLB-22">
          <mxGeometry relative="1" as="geometry" />
        </mxCell>
        <mxCell id="v3mbU31P-Tuf0xxwVjLB-24" style="edgeStyle=orthogonalEdgeStyle;rounded=0;orthogonalLoop=1;jettySize=auto;html=1;entryX=1.023;entryY=0.25;entryDx=0;entryDy=0;entryPerimeter=0;exitX=1;exitY=0.019;exitDx=0;exitDy=0;exitPerimeter=0;" edge="1" parent="v3mbU31P-Tuf0xxwVjLB-17" source="v3mbU31P-Tuf0xxwVjLB-22" target="v3mbU31P-Tuf0xxwVjLB-19">
          <mxGeometry relative="1" as="geometry">
            <mxPoint x="255" y="284" as="sourcePoint" />
          </mxGeometry>
        </mxCell>
        <mxCell id="v3mbU31P-Tuf0xxwVjLB-25" value="CanolaError.js" style="swimlane;fontStyle=0;align=center;verticalAlign=top;childLayout=stackLayout;horizontal=1;startSize=29;horizontalStack=0;resizeParent=1;resizeLast=0;collapsible=1;marginBottom=0;rounded=0;shadow=0;strokeWidth=1;" vertex="1" parent="WIyWlLk6GJQsqaUBKTNV-1">
          <mxGeometry x="-142" y="16" width="239" height="259" as="geometry">
            <mxRectangle x="-142" y="16" width="192" height="26" as="alternateBounds" />
          </mxGeometry>
        </mxCell>
        <mxCell id="v3mbU31P-Tuf0xxwVjLB-26" value="CanolaError(message)" style="swimlane;fontStyle=0;childLayout=stackLayout;horizontal=1;startSize=26;horizontalStack=0;resizeParent=1;resizeParentMax=0;resizeLast=0;collapsible=1;marginBottom=0;" vertex="1" parent="v3mbU31P-Tuf0xxwVjLB-25">
          <mxGeometry y="29" width="239" height="128" as="geometry">
            <mxRectangle y="29" width="239" height="26" as="alternateBounds" />
          </mxGeometry>
        </mxCell>
        <mxCell id="v3mbU31P-Tuf0xxwVjLB-27" value="function CanolaError(message) {&#xa;  Error.call(this, message);&#xa;  this.message = message;&#xa;}" style="text;strokeColor=none;fillColor=none;align=left;verticalAlign=top;spacingLeft=4;spacingRight=4;overflow=hidden;rotatable=0;points=[[0,0.5],[1,0.5]];portConstraint=eastwest;" vertex="1" parent="v3mbU31P-Tuf0xxwVjLB-26">
          <mxGeometry y="26" width="239" height="102" as="geometry" />
        </mxCell>
        <mxCell id="v3mbU31P-Tuf0xxwVjLB-28" value="&lt;div&gt;CanolaError.prototype = Object.create(Error.prototype);&lt;/div&gt;&lt;div&gt;CanolaError.prototype.constructor = CanolaError;&lt;/div&gt;&lt;div&gt;&lt;br&gt;&lt;/div&gt;&lt;div&gt;export default CanolaError;&lt;/div&gt;&lt;div&gt;&lt;br&gt;&lt;/div&gt;&lt;div&gt;&lt;br&gt;&lt;/div&gt;&lt;div&gt;&lt;br&gt;&lt;/div&gt;" style="text;html=1;align=left;verticalAlign=middle;resizable=0;points=[];autosize=1;strokeColor=none;" vertex="1" parent="v3mbU31P-Tuf0xxwVjLB-25">
          <mxGeometry y="157" width="239" height="102" as="geometry" />
        </mxCell>
        <mxCell id="v3mbU31P-Tuf0xxwVjLB-29" style="edgeStyle=orthogonalEdgeStyle;rounded=0;orthogonalLoop=1;jettySize=auto;html=1;exitX=0;exitY=0.5;exitDx=0;exitDy=0;" edge="1" parent="WIyWlLk6GJQsqaUBKTNV-1" source="v3mbU31P-Tuf0xxwVjLB-19" target="v3mbU31P-Tuf0xxwVjLB-3">
          <mxGeometry relative="1" as="geometry">
            <Array as="points">
              <mxPoint x="-410" y="86" />
            </Array>
          </mxGeometry>
        </mxCell>
        <mxCell id="v3mbU31P-Tuf0xxwVjLB-30" value="Component.js" style="swimlane;fontStyle=0;align=center;verticalAlign=top;childLayout=stackLayout;horizontal=1;startSize=29;horizontalStack=0;resizeParent=1;resizeLast=0;collapsible=1;marginBottom=0;rounded=0;shadow=0;strokeWidth=1;" vertex="1" parent="WIyWlLk6GJQsqaUBKTNV-1">
          <mxGeometry x="183" y="15" width="220" height="407" as="geometry">
            <mxRectangle x="-410" y="15" width="192" height="26" as="alternateBounds" />
          </mxGeometry>
        </mxCell>
        <mxCell id="v3mbU31P-Tuf0xxwVjLB-31" value="function componentFactory(generateTemplate)" style="swimlane;fontStyle=0;childLayout=stackLayout;horizontal=1;startSize=26;horizontalStack=0;resizeParent=1;resizeParentMax=0;resizeLast=0;collapsible=1;marginBottom=0;" vertex="1" parent="v3mbU31P-Tuf0xxwVjLB-30">
          <mxGeometry y="29" width="220" height="190" as="geometry">
            <mxRectangle y="29" width="431" height="26" as="alternateBounds" />
          </mxGeometry>
        </mxCell>
        <mxCell id="v3mbU31P-Tuf0xxwVjLB-32" style="edgeStyle=orthogonalEdgeStyle;rounded=0;orthogonalLoop=1;jettySize=auto;html=1;exitX=1;exitY=0.5;exitDx=0;exitDy=0;" edge="1" parent="v3mbU31P-Tuf0xxwVjLB-31">
          <mxGeometry relative="1" as="geometry">
            <mxPoint x="220" y="108" as="sourcePoint" />
            <mxPoint x="220" y="108" as="targetPoint" />
          </mxGeometry>
        </mxCell>
        <mxCell id="v3mbU31P-Tuf0xxwVjLB-33" value="validateOptions" style="swimlane;fontStyle=0;childLayout=stackLayout;horizontal=1;startSize=26;horizontalStack=0;resizeParent=1;resizeParentMax=0;resizeLast=0;collapsible=1;marginBottom=0;" vertex="1" parent="v3mbU31P-Tuf0xxwVjLB-30">
          <mxGeometry y="219" width="220" height="187" as="geometry">
            <mxRectangle y="219" width="431" height="26" as="alternateBounds" />
          </mxGeometry>
        </mxCell>
        <mxCell id="v3mbU31P-Tuf0xxwVjLB-34" value="function validateOptions({ template }) {&#xa;  if (!template) {&#xa;    throw new CanolaError(&quot;&#39;template&#39;은 필수 옵션입니다.&quot;);&#xa;  }&#xa;  if (typeof template !== &quot;function&quot;) {&#xa;    throw new CanolaError(&#xa;      &quot;&#39;template&#39; 옵션은 해당 컴포넌트의 HTML 마크업을 문자열로 반환하는 함수여야 합니다.&quot;&#xa;    );&#xa;  }&#xa;}" style="text;strokeColor=none;fillColor=none;align=left;verticalAlign=top;spacingLeft=4;spacingRight=4;overflow=hidden;rotatable=0;points=[[0,0.5],[1,0.5]];portConstraint=eastwest;" vertex="1" parent="v3mbU31P-Tuf0xxwVjLB-33">
          <mxGeometry y="26" width="220" height="161" as="geometry" />
        </mxCell>
        <mxCell id="v3mbU31P-Tuf0xxwVjLB-35" style="edgeStyle=orthogonalEdgeStyle;rounded=0;orthogonalLoop=1;jettySize=auto;html=1;exitX=1;exitY=0.5;exitDx=0;exitDy=0;" edge="1" parent="v3mbU31P-Tuf0xxwVjLB-33" source="v3mbU31P-Tuf0xxwVjLB-34" target="v3mbU31P-Tuf0xxwVjLB-34">
          <mxGeometry relative="1" as="geometry" />
        </mxCell>
        <mxCell id="v3mbU31P-Tuf0xxwVjLB-36" style="edgeStyle=orthogonalEdgeStyle;rounded=0;orthogonalLoop=1;jettySize=auto;html=1;entryX=1.023;entryY=0.25;entryDx=0;entryDy=0;entryPerimeter=0;exitX=1;exitY=0.019;exitDx=0;exitDy=0;exitPerimeter=0;" edge="1" parent="v3mbU31P-Tuf0xxwVjLB-30" source="v3mbU31P-Tuf0xxwVjLB-34">
          <mxGeometry relative="1" as="geometry">
            <mxPoint x="255" y="284" as="sourcePoint" />
            <mxPoint x="225.05999999999995" y="96" as="targetPoint" />
          </mxGeometry>
        </mxCell>
        <mxCell id="v3mbU31P-Tuf0xxwVjLB-37" style="edgeStyle=orthogonalEdgeStyle;rounded=0;orthogonalLoop=1;jettySize=auto;html=1;exitX=0;exitY=0.5;exitDx=0;exitDy=0;" edge="1" parent="WIyWlLk6GJQsqaUBKTNV-1">
          <mxGeometry relative="1" as="geometry">
            <mxPoint x="145.99999999999955" y="86" as="targetPoint" />
            <Array as="points">
              <mxPoint x="183" y="86" />
            </Array>
            <mxPoint x="183" y="152" as="sourcePoint" />
          </mxGeometry>
        </mxCell>
      </root>
    </mxGraphModel>
  </diagram>
</mxfile>
